<svg xmlns="http://www.w3.org/2000/svg" viewBox="0 0 64 64"><rect width="64" height="64" rx="14" fill="#09090b"/><g><circle cx="32.00" cy="10.00" r="2.90" fill="#f0fcff"/><circle cx="38.64" cy="13.83" r="2.90" fill="#f0fcff"/><circle cx="25.36" cy="13.83" r="2.90" fill="#f0fcff"/><circle cx="32.00" cy="17.67" r="2.90" fill="#f0fcff"/><circle cx="45.28" cy="17.67" r="2.90" fill="#f0fcff"/><circle cx="18.72" cy="17.67" r="2.90" fill="#f0fcff"/><circle cx="12.08" cy="44.50" r="2.00" fill="#0f1f73"/><circle cx="51.92" cy="44.50" r="2.00" fill="#0f1f73"/><circle cx="12.08" cy="36.83" r="2.30" fill="#1b5cdb"/><circle cx="51.92" cy="36.83" r="2.30" fill="#1b5cdb"/><circle cx="51.92" cy="29.17" r="2.60" fill="#44daf1"/><circle cx="12.08" cy="29.17" r="2.60" fill="#44daf1"/><circle cx="25.36" cy="21.50" r="2.90" fill="#f0fcff"/><circle cx="38.64" cy="21.50" r="2.90" fill="#f0fcff"/><circle cx="51.92" cy="21.50" r="2.90" fill="#f0fcff"/><circle cx="12.08" cy="21.50" r="2.90" fill="#f0fcff"/><circle cx="45.28" cy="48.33" r="2.00" fill="#0f1f73"/><circle cx="18.72" cy="48.33" r="2.00" fill="#0f1f73"/><circle cx="45.28" cy="40.67" r="2.30" fill="#1b5cdb"/><circle cx="18.72" cy="40.67" r="2.30" fill="#1b5cdb"/><circle cx="18.72" cy="33.00" r="2.60" fill="#44daf1"/><circle cx="45.28" cy="33.00" r="2.60" fill="#44daf1"/><circle cx="45.28" cy="25.33" r="2.90" fill="#f0fcff"/><circle cx="32.00" cy="25.33" r="2.90" fill="#f0fcff"/><circle cx="18.72" cy="25.33" r="2.90" fill="#f0fcff"/><circle cx="25.36" cy="52.17" r="2.00" fill="#0f1f73"/><circle cx="38.64" cy="52.17" r="2.00" fill="#0f1f73"/><circle cx="25.36" cy="44.50" r="2.30" fill="#1b5cdb"/><circle cx="38.64" cy="44.50" r="2.30" fill="#1b5cdb"/><circle cx="38.64" cy="36.83" r="2.60" fill="#44daf1"/><circle cx="25.36" cy="36.83" r="2.60" fill="#44daf1"/><circle cx="38.64" cy="29.17" r="2.90" fill="#f0fcff"/><circle cx="25.36" cy="29.17" r="2.90" fill="#f0fcff"/><circle cx="32.00" cy="56.00" r="2.00" fill="#0f1f73"/><circle cx="32.00" cy="48.33" r="2.30" fill="#1b5cdb"/><circle cx="32.00" cy="40.67" r="2.60" fill="#44daf1"/><circle cx="32.00" cy="33.00" r="2.90" fill="#f0fcff"/></g></svg>
